<?xml version="1.0" encoding="UTF-8" standalone="no"?>
<!DOCTYPE svg PUBLIC "-//W3C//DTD SVG 1.1//EN"
 "http://www.w3.org/Graphics/SVG/1.1/DTD/svg11.dtd">
<!-- Generated by graphviz version 4.0.0 (20220529.0937)
 -->
<!-- Pages: 1 -->
<svg width="1446pt" height="554pt"
 viewBox="0.00 0.00 1446.00 554.00" xmlns="http://www.w3.org/2000/svg" xmlns:xlink="http://www.w3.org/1999/xlink">
<g id="graph0" class="graph" transform="scale(1 1) rotate(0) translate(4 550)">
<polygon fill="white" stroke="transparent" points="-4,4 -4,-550 1442,-550 1442,4 -4,4"/>
<!-- 1969991362513710660 -->
<g id="node1" class="node">
<title>1969991362513710660</title>
<polygon fill="#b3b3ff" stroke="black" points="272,-461 0,-461 0,-425 272,-425 272,-461"/>
<text text-anchor="middle" x="136" y="-446.4" font-family="Times New Roman,serif" font-size="12.00">MQTT Broker &#45;&gt; </text>
<text text-anchor="middle" x="136" y="-433.4" font-family="Times New Roman,serif" font-size="12.00">mission/kitchen1&#45;actuator&#45;thermostat/toggleState (3160)</text>
</g>
<!-- &#45;1221811287549807264 -->
<g id="node2" class="node">
<title>&#45;1221811287549807264</title>
<polygon fill="#b3b3ff" stroke="black" points="444,-376 172,-376 172,-340 444,-340 444,-376"/>
<text text-anchor="middle" x="308" y="-361.4" font-family="Times New Roman,serif" font-size="12.00">MQTT Broker &#45;&gt; </text>
<text text-anchor="middle" x="308" y="-348.4" font-family="Times New Roman,serif" font-size="12.00">mission/kitchen2&#45;actuator&#45;thermostat/toggleState (3160)</text>
</g>
<!-- 1969991362513710660&#45;&gt;&#45;1221811287549807264 -->
<g id="edge1" class="edge">
<title>1969991362513710660&#45;&gt;&#45;1221811287549807264</title>
<path fill="none" stroke="black" stroke-width="1.64" d="M171.64,-424.8C198.25,-411.96 234.79,-394.33 263.35,-380.55"/>
<polygon fill="black" stroke="black" stroke-width="1.64" points="265.22,-383.53 272.7,-376.03 262.17,-377.23 265.22,-383.53"/>
<text text-anchor="middle" x="242.5" y="-397.4" font-family="Times New Roman,serif" font-size="12.00">836</text>
</g>
<!-- 5423905111947669497 -->
<g id="node8" class="node">
<title>5423905111947669497</title>
<polygon fill="#b3b3ff" stroke="black" points="300,-206 82,-206 82,-170 300,-170 300,-206"/>
<text text-anchor="middle" x="191" y="-191.4" font-family="Times New Roman,serif" font-size="12.00">kitchen1&#45;actuator&#45;thermostat &#45;&gt; </text>
<text text-anchor="middle" x="191" y="-178.4" font-family="Times New Roman,serif" font-size="12.00">mission/kitchen1&#45;actuator&#45;thermostat (3160)</text>
</g>
<!-- 1969991362513710660&#45;&gt;5423905111947669497 -->
<g id="edge2" class="edge">
<title>1969991362513710660&#45;&gt;5423905111947669497</title>
<path fill="none" stroke="black" stroke-width="2.58" d="M113.44,-424.97C71.84,-391.47 -9.17,-315.03 31,-255 45.16,-233.84 67.48,-219.45 91.01,-209.68"/>
<polygon fill="black" stroke="black" stroke-width="2.58" points="92.37,-212.9 100.43,-206.02 89.84,-206.38 92.37,-212.9"/>
<text text-anchor="middle" x="39.5" y="-312.4" font-family="Times New Roman,serif" font-size="12.00">1894</text>
</g>
<!-- &#45;2743381933127237640 -->
<g id="node9" class="node">
<title>&#45;2743381933127237640</title>
<polygon fill="#b3b3ff" stroke="black" points="258,-291 40,-291 40,-255 258,-255 258,-291"/>
<text text-anchor="middle" x="149" y="-276.4" font-family="Times New Roman,serif" font-size="12.00">kitchen2&#45;actuator&#45;thermostat &#45;&gt; </text>
<text text-anchor="middle" x="149" y="-263.4" font-family="Times New Roman,serif" font-size="12.00">mission/kitchen2&#45;actuator&#45;thermostat (3160)</text>
</g>
<!-- 1969991362513710660&#45;&gt;&#45;2743381933127237640 -->
<g id="edge3" class="edge">
<title>1969991362513710660&#45;&gt;&#45;2743381933127237640</title>
<path fill="none" stroke="black" stroke-width="1.28" d="M120.64,-424.85C104.56,-404.73 83.05,-370.25 94,-340 99.65,-324.39 110.79,-309.88 121.57,-298.46"/>
<polygon fill="black" stroke="black" stroke-width="1.28" points="124.34,-300.63 128.9,-291.07 119.37,-295.7 124.34,-300.63"/>
<text text-anchor="middle" x="103.5" y="-354.9" font-family="Times New Roman,serif" font-size="12.00">430</text>
</g>
<!-- &#45;1221811287549807264&#45;&gt;1969991362513710660 -->
<g id="edge4" class="edge">
<title>&#45;1221811287549807264&#45;&gt;1969991362513710660</title>
<path fill="none" stroke="black" stroke-width="1.64" d="M231.34,-376.01C216.79,-380.76 202.05,-386.68 189,-394 177.94,-400.2 167.28,-409.09 158.45,-417.53"/>
<polygon fill="black" stroke="black" stroke-width="1.64" points="155.81,-415.23 151.2,-424.77 160.75,-420.18 155.81,-415.23"/>
<text text-anchor="middle" x="198.5" y="-397.4" font-family="Times New Roman,serif" font-size="12.00">836</text>
</g>
<!-- &#45;1221811287549807264&#45;&gt;5423905111947669497 -->
<g id="edge5" class="edge">
<title>&#45;1221811287549807264&#45;&gt;5423905111947669497</title>
<path fill="none" stroke="black" stroke-width="1.26" d="M303.81,-339.9C298.01,-318.59 286.05,-281.74 267,-255 255.47,-238.82 239.2,-223.99 224.66,-212.51"/>
<polygon fill="black" stroke="black" stroke-width="1.26" points="226.42,-209.45 216.35,-206.15 222.17,-215.01 226.42,-209.45"/>
<text text-anchor="middle" x="296.5" y="-269.9" font-family="Times New Roman,serif" font-size="12.00">412</text>
</g>
<!-- &#45;1221811287549807264&#45;&gt;&#45;2743381933127237640 -->
<g id="edge6" class="edge">
<title>&#45;1221811287549807264&#45;&gt;&#45;2743381933127237640</title>
<path fill="none" stroke="black" stroke-width="2.6" d="M275.06,-339.8C250.56,-327.02 216.97,-309.48 190.62,-295.73"/>
<polygon fill="black" stroke="black" stroke-width="2.6" points="192.11,-292.56 181.63,-291.03 188.88,-298.76 192.11,-292.56"/>
<text text-anchor="middle" x="251.5" y="-312.4" font-family="Times New Roman,serif" font-size="12.00">1912</text>
</g>
<!-- 8583563423912016616 -->
<g id="node3" class="node">
<title>8583563423912016616</title>
<polygon fill="#f0f0ff" stroke="black" points="701,-461 435,-461 435,-425 701,-425 701,-461"/>
<text text-anchor="middle" x="568" y="-446.4" font-family="Times New Roman,serif" font-size="12.00">MQTT Broker &#45;&gt; </text>
<text text-anchor="middle" x="568" y="-433.4" font-family="Times New Roman,serif" font-size="12.00">mission/livingroom&#45;actuator&#45;firealarm/toggleState (615)</text>
</g>
<!-- 1470072037477057205 -->
<g id="node10" class="node">
<title>1470072037477057205</title>
<polygon fill="#f0f0ff" stroke="black" points="674,-376 462,-376 462,-340 674,-340 674,-376"/>
<text text-anchor="middle" x="568" y="-361.4" font-family="Times New Roman,serif" font-size="12.00">livingroom&#45;actuator&#45;firealarm &#45;&gt; </text>
<text text-anchor="middle" x="568" y="-348.4" font-family="Times New Roman,serif" font-size="12.00">mission/livingroom&#45;actuator&#45;firealarm (615)</text>
</g>
<!-- 8583563423912016616&#45;&gt;1470072037477057205 -->
<g id="edge7" class="edge">
<title>8583563423912016616&#45;&gt;1470072037477057205</title>
<path fill="none" stroke="black" stroke-width="1.44" d="M568,-424.8C568,-413.67 568,-398.94 568,-386.24"/>
<polygon fill="black" stroke="black" stroke-width="1.44" points="571.5,-386.18 568,-376.18 564.5,-386.18 571.5,-386.18"/>
<text text-anchor="middle" x="577.5" y="-397.4" font-family="Times New Roman,serif" font-size="12.00">615</text>
</g>
<!-- &#45;1840501330496748700 -->
<g id="node4" class="node">
<title>&#45;1840501330496748700</title>
<polygon fill="#d9d9ff" stroke="black" points="1310,-461 1024,-461 1024,-425 1310,-425 1310,-461"/>
<text text-anchor="middle" x="1167" y="-446.4" font-family="Times New Roman,serif" font-size="12.00">MQTT Broker &#45;&gt; </text>
<text text-anchor="middle" x="1167" y="-433.4" font-family="Times New Roman,serif" font-size="12.00">mission/livingroom1&#45;actuator&#45;thermostat/toggleState (1573)</text>
</g>
<!-- 546539392365978048 -->
<g id="node5" class="node">
<title>546539392365978048</title>
<polygon fill="#d9d9ff" stroke="black" points="1076,-376 790,-376 790,-340 1076,-340 1076,-376"/>
<text text-anchor="middle" x="933" y="-361.4" font-family="Times New Roman,serif" font-size="12.00">MQTT Broker &#45;&gt; </text>
<text text-anchor="middle" x="933" y="-348.4" font-family="Times New Roman,serif" font-size="12.00">mission/livingroom2&#45;actuator&#45;thermostat/toggleState (1574)</text>
</g>
<!-- &#45;1840501330496748700&#45;&gt;546539392365978048 -->
<g id="edge8" class="edge">
<title>&#45;1840501330496748700&#45;&gt;546539392365978048</title>
<path fill="none" stroke="black" stroke-width="1.17" d="M1118.8,-424.9C1081.67,-411.73 1030.22,-393.48 990.87,-379.53"/>
<polygon fill="black" stroke="black" stroke-width="1.17" points="991.73,-376.12 981.14,-376.07 989.39,-382.72 991.73,-376.12"/>
<text text-anchor="middle" x="1073.5" y="-397.4" font-family="Times New Roman,serif" font-size="12.00">307</text>
</g>
<!-- 7305134711195044752 -->
<g id="node6" class="node">
<title>7305134711195044752</title>
<polygon fill="#d9d9ff" stroke="black" points="1318,-36 1032,-36 1032,0 1318,0 1318,-36"/>
<text text-anchor="middle" x="1175" y="-21.4" font-family="Times New Roman,serif" font-size="12.00">MQTT Broker &#45;&gt; </text>
<text text-anchor="middle" x="1175" y="-8.4" font-family="Times New Roman,serif" font-size="12.00">mission/livingroom3&#45;actuator&#45;thermostat/toggleState (1574)</text>
</g>
<!-- &#45;1840501330496748700&#45;&gt;7305134711195044752 -->
<g id="edge9" class="edge">
<title>&#45;1840501330496748700&#45;&gt;7305134711195044752</title>
<path fill="none" stroke="black" stroke-width="1.21" d="M1269.47,-424.91C1302.62,-413.06 1331,-392.99 1331,-359 1331,-359 1331,-359 1331,-102 1331,-71.41 1307.33,-52.06 1278.44,-39.83"/>
<polygon fill="black" stroke="black" stroke-width="1.21" points="1279.48,-36.48 1268.9,-36.11 1276.94,-43 1279.48,-36.48"/>
<text text-anchor="middle" x="1340.5" y="-227.4" font-family="Times New Roman,serif" font-size="12.00">354</text>
</g>
<!-- 8564868531256533631 -->
<g id="node13" class="node">
<title>8564868531256533631</title>
<polygon fill="#d9d9ff" stroke="black" points="1110.5,-121 877.5,-121 877.5,-85 1110.5,-85 1110.5,-121"/>
<text text-anchor="middle" x="994" y="-106.4" font-family="Times New Roman,serif" font-size="12.00">livingroom1&#45;actuator&#45;thermostat &#45;&gt; </text>
<text text-anchor="middle" x="994" y="-93.4" font-family="Times New Roman,serif" font-size="12.00">mission/livingroom1&#45;actuator&#45;thermostat (1574)</text>
</g>
<!-- &#45;1840501330496748700&#45;&gt;8564868531256533631 -->
<g id="edge10" class="edge">
<title>&#45;1840501330496748700&#45;&gt;8564868531256533631</title>
<path fill="none" stroke="black" stroke-width="1.48" d="M1047.5,-424.97C943.21,-409.55 804.9,-387.53 781,-376 770.8,-371.08 762,-370.33 762,-359 762,-359 762,-359 762,-187 762,-158.48 824.93,-137.16 885.24,-123.27"/>
<polygon fill="black" stroke="black" stroke-width="1.48" points="886.28,-126.62 895.27,-121.02 884.75,-119.79 886.28,-126.62"/>
<text text-anchor="middle" x="771.5" y="-269.9" font-family="Times New Roman,serif" font-size="12.00">653</text>
</g>
<!-- 4466834469641805505 -->
<g id="node14" class="node">
<title>4466834469641805505</title>
<polygon fill="#d9d9ff" stroke="black" points="1264.5,-206 1031.5,-206 1031.5,-170 1264.5,-170 1264.5,-206"/>
<text text-anchor="middle" x="1148" y="-191.4" font-family="Times New Roman,serif" font-size="12.00">livingroom2&#45;actuator&#45;thermostat &#45;&gt; </text>
<text text-anchor="middle" x="1148" y="-178.4" font-family="Times New Roman,serif" font-size="12.00">mission/livingroom2&#45;actuator&#45;thermostat (1574)</text>
</g>
<!-- &#45;1840501330496748700&#45;&gt;4466834469641805505 -->
<g id="edge11" class="edge">
<title>&#45;1840501330496748700&#45;&gt;4466834469641805505</title>
<path fill="none" stroke="black" stroke-width="1.02" d="M1180.41,-424.95C1205.04,-391.41 1252.55,-314.91 1225,-255 1217,-237.62 1201.92,-223.1 1187.21,-212.15"/>
<polygon fill="black" stroke="black" stroke-width="1.02" points="1188.84,-209.01 1178.65,-206.11 1184.81,-214.73 1188.84,-209.01"/>
<text text-anchor="middle" x="1241.5" y="-312.4" font-family="Times New Roman,serif" font-size="12.00">141</text>
</g>
<!-- 1555566963131708797 -->
<g id="node15" class="node">
<title>1555566963131708797</title>
<polygon fill="#d9d9ff" stroke="black" points="1215.5,-291 982.5,-291 982.5,-255 1215.5,-255 1215.5,-291"/>
<text text-anchor="middle" x="1099" y="-276.4" font-family="Times New Roman,serif" font-size="12.00">livingroom3&#45;actuator&#45;thermostat &#45;&gt; </text>
<text text-anchor="middle" x="1099" y="-263.4" font-family="Times New Roman,serif" font-size="12.00">mission/livingroom3&#45;actuator&#45;thermostat (1574)</text>
</g>
<!-- &#45;1840501330496748700&#45;&gt;1555566963131708797 -->
<g id="edge12" class="edge">
<title>&#45;1840501330496748700&#45;&gt;1555566963131708797</title>
<path fill="none" stroke="black" d="M1154.36,-424.86C1145.37,-411.97 1133.59,-393.59 1126,-376 1115.45,-351.54 1108.17,-321.95 1103.85,-300.96"/>
<polygon fill="black" stroke="black" points="1107.28,-300.25 1101.92,-291.12 1100.41,-301.61 1107.28,-300.25"/>
<text text-anchor="middle" x="1135.5" y="-354.9" font-family="Times New Roman,serif" font-size="12.00">118</text>
</g>
<!-- 546539392365978048&#45;&gt;&#45;1840501330496748700 -->
<g id="edge13" class="edge">
<title>546539392365978048&#45;&gt;&#45;1840501330496748700</title>
<path fill="none" stroke="black" stroke-width="1.18" d="M956.48,-376.06C971.66,-386.36 992.21,-399 1012,-407 1026.93,-413.03 1043.12,-418.14 1059.2,-422.42"/>
<polygon fill="black" stroke="black" stroke-width="1.18" points="1058.64,-425.89 1069.2,-424.98 1060.38,-419.11 1058.64,-425.89"/>
<text text-anchor="middle" x="1021.5" y="-397.4" font-family="Times New Roman,serif" font-size="12.00">324</text>
</g>
<!-- 546539392365978048&#45;&gt;7305134711195044752 -->
<g id="edge14" class="edge">
<title>546539392365978048&#45;&gt;7305134711195044752</title>
<path fill="none" stroke="black" stroke-width="1.17" d="M844.33,-339.98C783.98,-325.78 715,-303.16 715,-274 715,-274 715,-274 715,-102 715,-60.92 754.99,-66.88 794,-54 835.41,-40.33 934.57,-31.48 1021.34,-26.09"/>
<polygon fill="black" stroke="black" stroke-width="1.17" points="1021.82,-29.57 1031.59,-25.47 1021.4,-22.58 1021.82,-29.57"/>
<text text-anchor="middle" x="724.5" y="-184.9" font-family="Times New Roman,serif" font-size="12.00">308</text>
</g>
<!-- 546539392365978048&#45;&gt;8564868531256533631 -->
<g id="edge15" class="edge">
<title>546539392365978048&#45;&gt;8564868531256533631</title>
<path fill="none" stroke="black" stroke-width="1.01" d="M901.98,-339.99C894.95,-334.96 888.08,-328.92 883,-322 856.24,-285.6 850.05,-268.78 856,-224 861.16,-185.2 851.76,-167.1 879,-139 883.83,-134.02 889.35,-129.74 895.29,-126.06"/>
<polygon fill="black" stroke="black" stroke-width="1.01" points="897.21,-129 904.27,-121.1 893.83,-122.87 897.21,-129"/>
<text text-anchor="middle" x="865.5" y="-227.4" font-family="Times New Roman,serif" font-size="12.00">134</text>
</g>
<!-- 546539392365978048&#45;&gt;4466834469641805505 -->
<g id="edge16" class="edge">
<title>546539392365978048&#45;&gt;4466834469641805505</title>
<path fill="none" stroke="black" stroke-width="1.48" d="M931.89,-339.94C931.39,-317.66 933.93,-278.69 955,-255 974.05,-233.58 1000.35,-219.1 1027.42,-209.33"/>
<polygon fill="black" stroke="black" stroke-width="1.48" points="1028.67,-212.6 1037.01,-206.06 1026.41,-205.97 1028.67,-212.6"/>
<text text-anchor="middle" x="964.5" y="-269.9" font-family="Times New Roman,serif" font-size="12.00">658</text>
</g>
<!-- 546539392365978048&#45;&gt;1555566963131708797 -->
<g id="edge17" class="edge">
<title>546539392365978048&#45;&gt;1555566963131708797</title>
<path fill="none" stroke="black" stroke-width="1.03" d="M976.54,-339.84C989.4,-334.46 1003.4,-328.27 1016,-322 1031.67,-314.2 1048.48,-304.71 1062.84,-296.23"/>
<polygon fill="black" stroke="black" stroke-width="1.03" points="1064.63,-299.23 1071.43,-291.11 1061.05,-293.22 1064.63,-299.23"/>
<text text-anchor="middle" x="1048.5" y="-312.4" font-family="Times New Roman,serif" font-size="12.00">150</text>
</g>
<!-- 7305134711195044752&#45;&gt;&#45;1840501330496748700 -->
<g id="edge18" class="edge">
<title>7305134711195044752&#45;&gt;&#45;1840501330496748700</title>
<path fill="none" stroke="black" stroke-width="1.15" d="M1316.53,-36.02C1348.39,-48.12 1373,-68.36 1373,-102 1373,-359 1373,-359 1373,-359 1373,-391.85 1350.19,-412.02 1319.75,-424.33"/>
<polygon fill="black" stroke="black" stroke-width="1.15" points="1318.24,-421.15 1310.07,-427.9 1320.67,-427.72 1318.24,-421.15"/>
<text text-anchor="middle" x="1382.5" y="-227.4" font-family="Times New Roman,serif" font-size="12.00">290</text>
</g>
<!-- 7305134711195044752&#45;&gt;546539392365978048 -->
<g id="edge19" class="edge">
<title>7305134711195044752&#45;&gt;546539392365978048</title>
<path fill="none" stroke="black" stroke-width="1.16" d="M1034.82,-36.05C966.55,-46.9 893.72,-63.07 868,-85 798.07,-144.64 816.44,-205.44 850,-291 855.99,-306.26 858.03,-310.79 870,-322 874.91,-326.6 880.53,-330.81 886.36,-334.59"/>
<polygon fill="black" stroke="black" stroke-width="1.16" points="884.61,-337.62 894.97,-339.82 888.24,-331.64 884.61,-337.62"/>
<text text-anchor="middle" x="832.5" y="-184.9" font-family="Times New Roman,serif" font-size="12.00">297</text>
</g>
<!-- 7305134711195044752&#45;&gt;8564868531256533631 -->
<g id="edge20" class="edge">
<title>7305134711195044752&#45;&gt;8564868531256533631</title>
<path fill="none" stroke="black" stroke-width="1.02" d="M1137.85,-36.03C1109.82,-48.89 1071.16,-66.62 1040.98,-80.46"/>
<polygon fill="black" stroke="black" stroke-width="1.02" points="1039.13,-77.45 1031.5,-84.8 1042.05,-83.82 1039.13,-77.45"/>
<text text-anchor="middle" x="1104.5" y="-57.4" font-family="Times New Roman,serif" font-size="12.00">145</text>
</g>
<!-- 7305134711195044752&#45;&gt;4466834469641805505 -->
<g id="edge21" class="edge">
<title>7305134711195044752&#45;&gt;4466834469641805505</title>
<path fill="none" stroke="black" stroke-width="1.06" d="M1175.59,-36.09C1176,-56.45 1175.8,-91.44 1171,-121 1168.7,-135.16 1166.67,-138.43 1162,-152 1161.06,-154.73 1160.03,-157.55 1158.97,-160.36"/>
<polygon fill="black" stroke="black" stroke-width="1.06" points="1155.71,-159.09 1155.32,-169.68 1162.22,-161.64 1155.71,-159.09"/>
<text text-anchor="middle" x="1183.5" y="-99.9" font-family="Times New Roman,serif" font-size="12.00">182</text>
</g>
<!-- 7305134711195044752&#45;&gt;1555566963131708797 -->
<g id="edge22" class="edge">
<title>7305134711195044752&#45;&gt;1555566963131708797</title>
<path fill="none" stroke="black" stroke-width="1.48" d="M1196.43,-36.02C1236.38,-69.82 1314.64,-147.24 1274,-206 1259.41,-227.1 1237.15,-241.46 1213.35,-251.24"/>
<polygon fill="black" stroke="black" stroke-width="1.48" points="1211.9,-248.05 1203.81,-254.89 1214.4,-254.58 1211.9,-248.05"/>
<text text-anchor="middle" x="1292.5" y="-142.4" font-family="Times New Roman,serif" font-size="12.00">660</text>
</g>
<!-- 8351279205479812001 -->
<g id="node7" class="node">
<title>8351279205479812001</title>
<polygon fill="#9b9bff" stroke="black" points="394,-546 182,-546 182,-510 394,-510 394,-546"/>
<text text-anchor="middle" x="288" y="-531.4" font-family="Times New Roman,serif" font-size="12.00">kitchen&#45;sensor&#45;temperature &#45;&gt; </text>
<text text-anchor="middle" x="288" y="-518.4" font-family="Times New Roman,serif" font-size="12.00">mission/kitchen&#45;sensor&#45;temperature (4184)</text>
</g>
<!-- 8351279205479812001&#45;&gt;1969991362513710660 -->
<g id="edge23" class="edge">
<title>8351279205479812001&#45;&gt;1969991362513710660</title>
<path fill="none" stroke="black" stroke-width="2.29" d="M256.51,-509.8C233.19,-497.07 201.26,-479.63 176.12,-465.91"/>
<polygon fill="black" stroke="black" stroke-width="2.29" points="177.65,-462.75 167.19,-461.03 174.29,-468.9 177.65,-462.75"/>
<text text-anchor="middle" x="234.5" y="-482.4" font-family="Times New Roman,serif" font-size="12.00">1565</text>
</g>
<!-- 8351279205479812001&#45;&gt;&#45;1221811287549807264 -->
<g id="edge24" class="edge">
<title>8351279205479812001&#45;&gt;&#45;1221811287549807264</title>
<path fill="none" stroke="black" stroke-width="2.32" d="M290.03,-509.97C293.5,-480.79 300.62,-421.01 304.78,-386.06"/>
<polygon fill="black" stroke="black" stroke-width="2.32" points="308.26,-386.42 305.97,-376.08 301.31,-385.59 308.26,-386.42"/>
<text text-anchor="middle" x="312.5" y="-439.9" font-family="Times New Roman,serif" font-size="12.00">1595</text>
</g>
<!-- 5423905111947669497&#45;&gt;&#45;1221811287549807264 -->
<g id="edge25" class="edge">
<title>5423905111947669497&#45;&gt;&#45;1221811287549807264</title>
<path fill="none" stroke="black" stroke-width="1.54" d="M248.56,-206.05C272.07,-216.22 296.8,-231.8 310,-255 322.94,-277.76 320.27,-308.24 315.7,-329.94"/>
<polygon fill="black" stroke="black" stroke-width="1.54" points="312.26,-329.28 313.37,-339.81 319.08,-330.89 312.26,-329.28"/>
<text text-anchor="middle" x="329.5" y="-269.9" font-family="Times New Roman,serif" font-size="12.00">729</text>
</g>
<!-- 5423905111947669497&#45;&gt;&#45;2743381933127237640 -->
<g id="edge26" class="edge">
<title>5423905111947669497&#45;&gt;&#45;2743381933127237640</title>
<path fill="none" stroke="black" stroke-width="1.62" d="M183.63,-206.06C179.52,-215.31 174.19,-226.89 169,-237 167.5,-239.93 165.87,-242.96 164.22,-245.96"/>
<polygon fill="black" stroke="black" stroke-width="1.62" points="161.14,-244.29 159.28,-254.72 167.24,-247.73 161.14,-244.29"/>
<text text-anchor="middle" x="184.5" y="-227.4" font-family="Times New Roman,serif" font-size="12.00">818</text>
</g>
<!-- &#45;2743381933127237640&#45;&gt;1969991362513710660 -->
<g id="edge27" class="edge">
<title>&#45;2743381933127237640&#45;&gt;1969991362513710660</title>
<path fill="none" stroke="black" stroke-width="1.57" d="M147.68,-291.08C145.42,-320.29 140.79,-380.07 138.09,-414.99"/>
<polygon fill="black" stroke="black" stroke-width="1.57" points="134.6,-414.73 137.32,-424.97 141.58,-415.27 134.6,-414.73"/>
<text text-anchor="middle" x="153.5" y="-354.9" font-family="Times New Roman,serif" font-size="12.00">759</text>
</g>
<!-- &#45;2743381933127237640&#45;&gt;5423905111947669497 -->
<g id="edge28" class="edge">
<title>&#45;2743381933127237640&#45;&gt;5423905111947669497</title>
<path fill="none" stroke="black" stroke-width="1.66" d="M143.89,-254.75C142.03,-245.23 141.38,-233.45 146,-224 147.91,-220.1 150.48,-216.51 153.44,-213.23"/>
<polygon fill="black" stroke="black" stroke-width="1.66" points="156.05,-215.59 160.91,-206.17 151.24,-210.5 156.05,-215.59"/>
<text text-anchor="middle" x="155.5" y="-227.4" font-family="Times New Roman,serif" font-size="12.00">854</text>
</g>
<!-- 434650504490054140 -->
<g id="node11" class="node">
<title>434650504490054140</title>
<polygon fill="#e1e1ff" stroke="black" points="687.5,-546 448.5,-546 448.5,-510 687.5,-510 687.5,-546"/>
<text text-anchor="middle" x="568" y="-531.4" font-family="Times New Roman,serif" font-size="12.00">livingroom&#45;sensor&#45;smokedetector &#45;&gt; </text>
<text text-anchor="middle" x="568" y="-518.4" font-family="Times New Roman,serif" font-size="12.00">mission/livingroom&#45;sensor&#45;smokedetector (1242)</text>
</g>
<!-- 434650504490054140&#45;&gt;8583563423912016616 -->
<g id="edge29" class="edge">
<title>434650504490054140&#45;&gt;8583563423912016616</title>
<path fill="none" stroke="black" stroke-width="1.44" d="M568,-509.8C568,-498.67 568,-483.94 568,-471.24"/>
<polygon fill="black" stroke="black" stroke-width="1.44" points="571.5,-471.18 568,-461.18 564.5,-471.18 571.5,-471.18"/>
<text text-anchor="middle" x="577.5" y="-482.4" font-family="Times New Roman,serif" font-size="12.00">615</text>
</g>
<!-- &#45;2721465451358231996 -->
<g id="node12" class="node">
<title>&#45;2721465451358231996</title>
<polygon fill="#9b9bff" stroke="black" points="1280,-546 1054,-546 1054,-510 1280,-510 1280,-546"/>
<text text-anchor="middle" x="1167" y="-531.4" font-family="Times New Roman,serif" font-size="12.00">livingroom&#45;sensor&#45;temperature &#45;&gt; </text>
<text text-anchor="middle" x="1167" y="-518.4" font-family="Times New Roman,serif" font-size="12.00">mission/livingroom&#45;sensor&#45;temperature (4171)</text>
</g>
<!-- &#45;2721465451358231996&#45;&gt;&#45;1840501330496748700 -->
<g id="edge30" class="edge">
<title>&#45;2721465451358231996&#45;&gt;&#45;1840501330496748700</title>
<path fill="none" stroke="black" stroke-width="1.38" d="M1167,-509.8C1167,-498.67 1167,-483.94 1167,-471.24"/>
<polygon fill="black" stroke="black" stroke-width="1.38" points="1170.5,-471.18 1167,-461.18 1163.5,-471.18 1170.5,-471.18"/>
<text text-anchor="middle" x="1176.5" y="-482.4" font-family="Times New Roman,serif" font-size="12.00">545</text>
</g>
<!-- &#45;2721465451358231996&#45;&gt;546539392365978048 -->
<g id="edge31" class="edge">
<title>&#45;2721465451358231996&#45;&gt;546539392365978048</title>
<path fill="none" stroke="black" stroke-width="1.38" d="M1093.29,-510C1060.87,-499.8 1023.91,-484.17 996,-461 971.59,-440.73 953.91,-408.43 943.6,-385.62"/>
<polygon fill="black" stroke="black" stroke-width="1.38" points="946.7,-383.97 939.51,-376.18 940.28,-386.75 946.7,-383.97"/>
<text text-anchor="middle" x="1005.5" y="-439.9" font-family="Times New Roman,serif" font-size="12.00">549</text>
</g>
<!-- &#45;2721465451358231996&#45;&gt;7305134711195044752 -->
<g id="edge32" class="edge">
<title>&#45;2721465451358231996&#45;&gt;7305134711195044752</title>
<path fill="none" stroke="black" stroke-width="1.32" d="M1280.1,-510.25C1347.09,-497.03 1419,-475.49 1419,-444 1419,-444 1419,-444 1419,-102 1419,-71.2 1396.44,-68 1369,-54 1356.12,-47.43 1342.21,-42.07 1327.95,-37.71"/>
<polygon fill="black" stroke="black" stroke-width="1.32" points="1328.62,-34.26 1318.04,-34.85 1326.67,-40.99 1328.62,-34.26"/>
<text text-anchor="middle" x="1428.5" y="-269.9" font-family="Times New Roman,serif" font-size="12.00">480</text>
</g>
<!-- 8564868531256533631&#45;&gt;546539392365978048 -->
<g id="edge33" class="edge">
<title>8564868531256533631&#45;&gt;546539392365978048</title>
<path fill="none" stroke="black" stroke-width="1.08" d="M976.75,-121.03C972.06,-126.41 967.36,-132.63 964,-139 928,-207.33 931.56,-231.85 928,-309 927.73,-314.77 927.59,-316.24 928,-322 928.18,-324.57 928.44,-327.24 928.74,-329.91"/>
<polygon fill="black" stroke="black" stroke-width="1.08" points="925.29,-330.51 930.07,-339.96 932.23,-329.59 925.29,-330.51"/>
<text text-anchor="middle" x="942.5" y="-227.4" font-family="Times New Roman,serif" font-size="12.00">209</text>
</g>
<!-- 8564868531256533631&#45;&gt;7305134711195044752 -->
<g id="edge34" class="edge">
<title>8564868531256533631&#45;&gt;7305134711195044752</title>
<path fill="none" stroke="black" stroke-width="1.09" d="M1010.2,-84.73C1020.67,-74.48 1035.09,-61.97 1050,-54 1060.82,-48.22 1072.69,-43.31 1084.68,-39.17"/>
<polygon fill="black" stroke="black" stroke-width="1.09" points="1085.89,-42.46 1094.3,-36.01 1083.71,-35.8 1085.89,-42.46"/>
<text text-anchor="middle" x="1059.5" y="-57.4" font-family="Times New Roman,serif" font-size="12.00">217</text>
</g>
<!-- 8564868531256533631&#45;&gt;4466834469641805505 -->
<g id="edge35" class="edge">
<title>8564868531256533631&#45;&gt;4466834469641805505</title>
<path fill="none" stroke="black" stroke-width="1.15" d="M1027.67,-121.04C1038.65,-126.68 1050.88,-133.04 1062,-139 1077.47,-147.3 1094.37,-156.66 1109.06,-164.9"/>
<polygon fill="black" stroke="black" stroke-width="1.15" points="1107.46,-168.02 1117.89,-169.87 1110.89,-161.91 1107.46,-168.02"/>
<text text-anchor="middle" x="1094.5" y="-142.4" font-family="Times New Roman,serif" font-size="12.00">283</text>
</g>
<!-- 8564868531256533631&#45;&gt;1555566963131708797 -->
<g id="edge36" class="edge">
<title>8564868531256533631&#45;&gt;1555566963131708797</title>
<path fill="none" stroke="black" stroke-width="1.19" d="M991.52,-121.21C989.32,-142.63 988.51,-179.6 1004,-206 1014.82,-224.44 1033.07,-238.95 1050.69,-249.62"/>
<polygon fill="black" stroke="black" stroke-width="1.19" points="1049.39,-252.91 1059.81,-254.85 1052.88,-246.84 1049.39,-252.91"/>
<text text-anchor="middle" x="1013.5" y="-184.9" font-family="Times New Roman,serif" font-size="12.00">332</text>
</g>
<!-- 4466834469641805505&#45;&gt;&#45;1840501330496748700 -->
<g id="edge37" class="edge">
<title>4466834469641805505&#45;&gt;&#45;1840501330496748700</title>
<path fill="none" stroke="black" stroke-width="1.08" d="M1193.02,-206.18C1202.82,-211.08 1212.72,-217.03 1221,-224 1252.11,-250.22 1250.56,-268.56 1255,-309 1260.23,-356.64 1242.75,-372.01 1210,-407 1206.39,-410.85 1202.36,-414.66 1198.24,-418.27"/>
<polygon fill="black" stroke="black" stroke-width="1.08" points="1195.74,-415.8 1190.33,-424.91 1200.24,-421.17 1195.74,-415.8"/>
<text text-anchor="middle" x="1264.5" y="-312.4" font-family="Times New Roman,serif" font-size="12.00">208</text>
</g>
<!-- 4466834469641805505&#45;&gt;7305134711195044752 -->
<g id="edge38" class="edge">
<title>4466834469641805505&#45;&gt;7305134711195044752</title>
<path fill="none" stroke="black" stroke-width="1.09" d="M1146,-169.84C1144.08,-149.41 1142.23,-114.36 1148,-85 1150.67,-71.43 1156.15,-57.13 1161.48,-45.33"/>
<polygon fill="black" stroke="black" stroke-width="1.09" points="1164.75,-46.61 1165.86,-36.07 1158.42,-43.62 1164.75,-46.61"/>
<text text-anchor="middle" x="1157.5" y="-99.9" font-family="Times New Roman,serif" font-size="12.00">215</text>
</g>
<!-- 4466834469641805505&#45;&gt;8564868531256533631 -->
<g id="edge39" class="edge">
<title>4466834469641805505&#45;&gt;8564868531256533631</title>
<path fill="none" stroke="black" stroke-width="1.19" d="M1077.04,-170C1063.85,-165.26 1050.59,-159.33 1039,-152 1029.34,-145.89 1020.36,-137.23 1013.01,-128.94"/>
<polygon fill="black" stroke="black" stroke-width="1.19" points="1015.6,-126.59 1006.48,-121.2 1010.25,-131.1 1015.6,-126.59"/>
<text text-anchor="middle" x="1048.5" y="-142.4" font-family="Times New Roman,serif" font-size="12.00">326</text>
</g>
<!-- 4466834469641805505&#45;&gt;1555566963131708797 -->
<g id="edge40" class="edge">
<title>4466834469641805505&#45;&gt;1555566963131708797</title>
<path fill="none" stroke="black" stroke-width="1.17" d="M1121.44,-206.12C1115.48,-211.18 1109.8,-217.21 1106,-224 1102.52,-230.22 1100.57,-237.58 1099.53,-244.64"/>
<polygon fill="black" stroke="black" stroke-width="1.17" points="1096.04,-244.31 1098.57,-254.6 1103.01,-244.98 1096.04,-244.31"/>
<text text-anchor="middle" x="1115.5" y="-227.4" font-family="Times New Roman,serif" font-size="12.00">314</text>
</g>
<!-- 1555566963131708797&#45;&gt;&#45;1840501330496748700 -->
<g id="edge41" class="edge">
<title>1555566963131708797&#45;&gt;&#45;1840501330496748700</title>
<path fill="none" stroke="black" stroke-width="1.08" d="M1113.75,-291.06C1123.98,-303.76 1137.14,-321.94 1145,-340 1155.47,-364.05 1161.13,-393.51 1164.08,-414.58"/>
<polygon fill="black" stroke="black" stroke-width="1.08" points="1160.64,-415.29 1165.38,-424.76 1167.58,-414.4 1160.64,-415.29"/>
<text text-anchor="middle" x="1165.5" y="-354.9" font-family="Times New Roman,serif" font-size="12.00">206</text>
</g>
<!-- 1555566963131708797&#45;&gt;546539392365978048 -->
<g id="edge42" class="edge">
<title>1555566963131708797&#45;&gt;546539392365978048</title>
<path fill="none" stroke="black" stroke-width="1.08" d="M1034.96,-291.07C1020.74,-295.96 1006.03,-301.93 993,-309 980.88,-315.57 968.76,-324.66 958.63,-333.17"/>
<polygon fill="black" stroke="black" stroke-width="1.08" points="956.23,-330.61 950.96,-339.8 960.81,-335.91 956.23,-330.61"/>
<text text-anchor="middle" x="1002.5" y="-312.4" font-family="Times New Roman,serif" font-size="12.00">212</text>
</g>
<!-- 1555566963131708797&#45;&gt;8564868531256533631 -->
<g id="edge43" class="edge">
<title>1555566963131708797&#45;&gt;8564868531256533631</title>
<path fill="none" stroke="black" stroke-width="1.18" d="M1029.92,-254.9C1005.68,-245 981.42,-229.64 969,-206 956.37,-181.96 966.9,-151.36 977.92,-129.98"/>
<polygon fill="black" stroke="black" stroke-width="1.18" points="981.02,-131.59 982.77,-121.14 974.89,-128.22 981.02,-131.59"/>
<text text-anchor="middle" x="978.5" y="-184.9" font-family="Times New Roman,serif" font-size="12.00">316</text>
</g>
<!-- 1555566963131708797&#45;&gt;4466834469641805505 -->
<g id="edge44" class="edge">
<title>1555566963131708797&#45;&gt;4466834469641805505</title>
<path fill="none" stroke="black" stroke-width="1.17" d="M1112.91,-254.65C1117.03,-249.16 1121.4,-242.96 1125,-237 1129.07,-230.25 1132.98,-222.68 1136.38,-215.57"/>
<polygon fill="black" stroke="black" stroke-width="1.17" points="1139.65,-216.84 1140.68,-206.3 1133.3,-213.9 1139.65,-216.84"/>
<text text-anchor="middle" x="1141.5" y="-227.4" font-family="Times New Roman,serif" font-size="12.00">310</text>
</g>
</g>
</svg>
